<svg width="23" height="16" viewBox="0 0 23 16" fill="none" xmlns="http://www.w3.org/2000/svg">
<path d="M9.67978 3.41039L13.3171 6.87447L16.9544 3.41039L18.0545 4.56552L14.4736 7.9759L18.0545 11.3863L16.9544 12.5414L13.3171 9.07734L9.67978 12.5414L8.57966 11.3863L12.1606 7.9759L8.57966 4.56552L9.67978 3.41039Z" fill="#56575E"/>
<path fill-rule="evenodd" clip-rule="evenodd" d="M6.41617 0C6.12082 0 5.84201 0.136361 5.66068 0.369501L0.201613 7.3883C-0.067205 7.73392 -0.0672035 8.21789 0.201613 8.56351L5.66068 15.5823C5.842 15.8154 6.12081 15.9518 6.41617 15.9518H21.3329C21.8615 15.9518 22.29 15.5233 22.29 14.9947V0.957108C22.29 0.428508 21.8614 0 21.3329 0H6.41617ZM1.76546 7.9759L6.72824 1.59518H20.6948V14.3566H6.72824L1.76546 7.9759Z" fill="#56575E"/>
</svg>
